<svg width="134" height="51" viewBox="0 0 134 51" fill="none" xmlns="http://www.w3.org/2000/svg">
<path d="M1 0.5H0.5V1V50V50.5H1H118C126.56 50.5 133.5 43.5604 133.5 35V16C133.5 7.43959 126.56 0.5 118 0.5H1Z" fill="#0065FC"/>
<path d="M18.4189 32V19.22H24.0709C24.6589 19.22 25.1989 19.34 25.6909 19.58C26.1949 19.82 26.6269 20.144 26.9869 20.552C27.3589 20.96 27.6409 21.416 27.8329 21.92C28.0369 22.424 28.1389 22.94 28.1389 23.468C28.1389 24.008 28.0429 24.53 27.8509 25.034C27.6709 25.526 27.4069 25.958 27.0589 26.33C26.7109 26.702 26.3029 26.99 25.8349 27.194L28.7509 32H26.0149L23.3869 27.716H20.9029V32H18.4189ZM20.9029 25.538H24.0169C24.3289 25.538 24.6049 25.448 24.8449 25.268C25.0849 25.076 25.2769 24.824 25.4209 24.512C25.5649 24.2 25.6369 23.852 25.6369 23.468C25.6369 23.06 25.5529 22.706 25.3849 22.406C25.2169 22.094 25.0009 21.848 24.7369 21.668C24.4849 21.488 24.2089 21.398 23.9089 21.398H20.9029V25.538ZM34.2132 32.18C33.4572 32.18 32.7732 32.054 32.1612 31.802C31.5492 31.538 31.0272 31.184 30.5952 30.74C30.1632 30.284 29.8272 29.768 29.5872 29.192C29.3592 28.604 29.2452 27.986 29.2452 27.338C29.2452 26.438 29.4432 25.616 29.8392 24.872C30.2472 24.128 30.8232 23.534 31.5672 23.09C32.3232 22.634 33.2112 22.406 34.2312 22.406C35.2632 22.406 36.1452 22.634 36.8772 23.09C37.6092 23.534 38.1672 24.128 38.5512 24.872C38.9472 25.604 39.1452 26.396 39.1452 27.248C39.1452 27.392 39.1392 27.542 39.1272 27.698C39.1152 27.842 39.1032 27.962 39.0912 28.058H31.8012C31.8492 28.538 31.9872 28.958 32.2152 29.318C32.4552 29.678 32.7552 29.954 33.1152 30.146C33.4872 30.326 33.8832 30.416 34.3032 30.416C34.7832 30.416 35.2332 30.302 35.6532 30.074C36.0852 29.834 36.3792 29.522 36.5352 29.138L38.6052 29.714C38.3772 30.194 38.0472 30.62 37.6152 30.992C37.1952 31.364 36.6972 31.658 36.1212 31.874C35.5452 32.078 34.9092 32.18 34.2132 32.18ZM31.7472 26.528H36.6792C36.6312 26.048 36.4932 25.634 36.2652 25.286C36.0492 24.926 35.7612 24.65 35.4012 24.458C35.0412 24.254 34.6392 24.152 34.1952 24.152C33.7632 24.152 33.3672 24.254 33.0072 24.458C32.6592 24.65 32.3712 24.926 32.1432 25.286C31.9272 25.634 31.7952 26.048 31.7472 26.528ZM45.0066 32.18C44.2386 32.18 43.5486 32.054 42.9366 31.802C42.3246 31.538 41.8026 31.178 41.3706 30.722C40.9386 30.254 40.6026 29.726 40.3626 29.138C40.1346 28.55 40.0206 27.932 40.0206 27.284C40.0206 26.396 40.2186 25.586 40.6146 24.854C41.0226 24.11 41.5986 23.516 42.3426 23.072C43.0866 22.628 43.9686 22.406 44.9886 22.406C46.0086 22.406 46.8846 22.628 47.6166 23.072C48.3486 23.516 48.8946 24.098 49.2546 24.818L46.8966 25.538C46.6926 25.19 46.4226 24.926 46.0866 24.746C45.7506 24.554 45.3786 24.458 44.9706 24.458C44.5146 24.458 44.0946 24.578 43.7106 24.818C43.3386 25.046 43.0446 25.376 42.8286 25.808C42.6126 26.228 42.5046 26.72 42.5046 27.284C42.5046 27.836 42.6126 28.328 42.8286 28.76C43.0566 29.18 43.3566 29.516 43.7286 29.768C44.1006 30.008 44.5146 30.128 44.9706 30.128C45.2586 30.128 45.5286 30.08 45.7806 29.984C46.0446 29.888 46.2786 29.756 46.4826 29.588C46.6866 29.42 46.8366 29.228 46.9326 29.012L49.2906 29.732C49.0746 30.2 48.7566 30.62 48.3366 30.992C47.9286 31.364 47.4426 31.658 46.8786 31.874C46.3266 32.078 45.7026 32.18 45.0066 32.18ZM59.5408 32H57.1288V26.708C57.1288 25.976 56.9848 25.43 56.6968 25.07C56.4208 24.71 56.0368 24.53 55.5448 24.53C55.2568 24.53 54.9508 24.614 54.6268 24.782C54.3028 24.95 54.0088 25.184 53.7448 25.484C53.4928 25.772 53.3068 26.108 53.1868 26.492V32H50.7748V18.86H53.1868V24.314C53.5348 23.714 54.0088 23.246 54.6088 22.91C55.2088 22.574 55.8628 22.406 56.5708 22.406C57.1828 22.406 57.6808 22.514 58.0648 22.73C58.4488 22.934 58.7488 23.216 58.9648 23.576C59.1808 23.924 59.3308 24.32 59.4148 24.764C59.4988 25.196 59.5408 25.646 59.5408 26.114V32ZM66.012 32.18C65.256 32.18 64.572 32.054 63.96 31.802C63.348 31.538 62.826 31.184 62.394 30.74C61.962 30.284 61.626 29.768 61.386 29.192C61.158 28.604 61.044 27.986 61.044 27.338C61.044 26.438 61.242 25.616 61.638 24.872C62.046 24.128 62.622 23.534 63.366 23.09C64.122 22.634 65.01 22.406 66.03 22.406C67.062 22.406 67.944 22.634 68.676 23.09C69.408 23.534 69.966 24.128 70.35 24.872C70.746 25.604 70.944 26.396 70.944 27.248C70.944 27.392 70.938 27.542 70.926 27.698C70.914 27.842 70.902 27.962 70.89 28.058H63.6C63.648 28.538 63.786 28.958 64.014 29.318C64.254 29.678 64.554 29.954 64.914 30.146C65.286 30.326 65.682 30.416 66.102 30.416C66.582 30.416 67.032 30.302 67.452 30.074C67.884 29.834 68.178 29.522 68.334 29.138L70.404 29.714C70.176 30.194 69.846 30.62 69.414 30.992C68.994 31.364 68.496 31.658 67.92 31.874C67.344 32.078 66.708 32.18 66.012 32.18ZM63.546 26.528H68.478C68.43 26.048 68.292 25.634 68.064 25.286C67.848 24.926 67.56 24.65 67.2 24.458C66.84 24.254 66.438 24.152 65.994 24.152C65.562 24.152 65.166 24.254 64.806 24.458C64.458 24.65 64.17 24.926 63.942 25.286C63.726 25.634 63.594 26.048 63.546 26.528ZM78.0294 24.656C77.2974 24.656 76.6434 24.8 76.0674 25.088C75.4914 25.364 75.0774 25.766 74.8254 26.294V32H72.4134V22.568H74.6274V24.584C74.9634 23.936 75.3894 23.426 75.9054 23.054C76.4214 22.682 76.9674 22.478 77.5434 22.442C77.6754 22.442 77.7774 22.442 77.8494 22.442C77.9214 22.442 77.9814 22.448 78.0294 22.46V24.656ZM83.6433 32.18C82.8753 32.18 82.1853 32.054 81.5733 31.802C80.9613 31.538 80.4393 31.178 80.0073 30.722C79.5753 30.254 79.2393 29.726 78.9993 29.138C78.7713 28.55 78.6573 27.932 78.6573 27.284C78.6573 26.396 78.8553 25.586 79.2513 24.854C79.6593 24.11 80.2353 23.516 80.9793 23.072C81.7233 22.628 82.6053 22.406 83.6253 22.406C84.6453 22.406 85.5213 22.628 86.2533 23.072C86.9853 23.516 87.5313 24.098 87.8913 24.818L85.5333 25.538C85.3293 25.19 85.0593 24.926 84.7233 24.746C84.3873 24.554 84.0153 24.458 83.6073 24.458C83.1513 24.458 82.7313 24.578 82.3473 24.818C81.9753 25.046 81.6813 25.376 81.4653 25.808C81.2493 26.228 81.1413 26.72 81.1413 27.284C81.1413 27.836 81.2493 28.328 81.4653 28.76C81.6933 29.18 81.9933 29.516 82.3653 29.768C82.7373 30.008 83.1513 30.128 83.6073 30.128C83.8953 30.128 84.1653 30.08 84.4173 29.984C84.6813 29.888 84.9153 29.756 85.1193 29.588C85.3233 29.42 85.4733 29.228 85.5693 29.012L87.9273 29.732C87.7113 30.2 87.3933 30.62 86.9733 30.992C86.5653 31.364 86.0793 31.658 85.5153 31.874C84.9633 32.078 84.3393 32.18 83.6433 32.18ZM98.1775 32H95.7655V26.708C95.7655 25.976 95.6215 25.43 95.3335 25.07C95.0575 24.71 94.6735 24.53 94.1815 24.53C93.8935 24.53 93.5875 24.614 93.2635 24.782C92.9395 24.95 92.6455 25.184 92.3815 25.484C92.1295 25.772 91.9435 26.108 91.8235 26.492V32H89.4115V18.86H91.8235V24.314C92.1715 23.714 92.6455 23.246 93.2455 22.91C93.8455 22.574 94.4995 22.406 95.2075 22.406C95.8195 22.406 96.3175 22.514 96.7015 22.73C97.0855 22.934 97.3855 23.216 97.6015 23.576C97.8175 23.924 97.9675 24.32 98.0515 24.764C98.1355 25.196 98.1775 25.646 98.1775 26.114V32ZM104.649 32.18C103.893 32.18 103.209 32.054 102.597 31.802C101.985 31.538 101.463 31.184 101.031 30.74C100.599 30.284 100.263 29.768 100.023 29.192C99.7948 28.604 99.6808 27.986 99.6808 27.338C99.6808 26.438 99.8788 25.616 100.275 24.872C100.683 24.128 101.259 23.534 102.003 23.09C102.759 22.634 103.647 22.406 104.667 22.406C105.699 22.406 106.581 22.634 107.313 23.09C108.045 23.534 108.603 24.128 108.987 24.872C109.383 25.604 109.581 26.396 109.581 27.248C109.581 27.392 109.575 27.542 109.563 27.698C109.551 27.842 109.539 27.962 109.527 28.058H102.237C102.285 28.538 102.423 28.958 102.651 29.318C102.891 29.678 103.191 29.954 103.551 30.146C103.923 30.326 104.319 30.416 104.739 30.416C105.219 30.416 105.669 30.302 106.089 30.074C106.521 29.834 106.815 29.522 106.971 29.138L109.041 29.714C108.813 30.194 108.483 30.62 108.051 30.992C107.631 31.364 107.133 31.658 106.557 31.874C105.981 32.078 105.345 32.18 104.649 32.18ZM102.183 26.528H107.115C107.067 26.048 106.929 25.634 106.701 25.286C106.485 24.926 106.197 24.65 105.837 24.458C105.477 24.254 105.075 24.152 104.631 24.152C104.199 24.152 103.803 24.254 103.443 24.458C103.095 24.65 102.807 24.926 102.579 25.286C102.363 25.634 102.231 26.048 102.183 26.528ZM116.666 24.656C115.934 24.656 115.28 24.8 114.704 25.088C114.128 25.364 113.714 25.766 113.462 26.294V32H111.05V22.568H113.264V24.584C113.6 23.936 114.026 23.426 114.542 23.054C115.058 22.682 115.604 22.478 116.18 22.442C116.312 22.442 116.414 22.442 116.486 22.442C116.558 22.442 116.618 22.448 116.666 22.46V24.656Z" fill="white"/>
<path d="M1 0.5H0.5V1V50V50.5H1H118C126.56 50.5 133.5 43.5604 133.5 35V16C133.5 7.43959 126.56 0.5 118 0.5H1Z" stroke="#0065FC"/>
</svg>
