<svg width="294" height="35" viewBox="0 0 294 35" fill="none" xmlns="http://www.w3.org/2000/svg">
<path d="M35.6653 19.64V31H34.5613V25.688H27.8253V31H26.7053V19.64H27.8253V24.696H34.5613V19.64H35.6653ZM41.7688 31.16C41.1714 31.16 40.6168 31.048 40.1048 30.824C39.5928 30.5893 39.1501 30.2747 38.7768 29.88C38.4034 29.4747 38.1101 29.0107 37.8968 28.488C37.6941 27.9653 37.5928 27.4053 37.5928 26.808C37.5928 26.0293 37.7688 25.3147 38.1208 24.664C38.4834 24.0133 38.9794 23.496 39.6088 23.112C40.2381 22.7173 40.9528 22.52 41.7528 22.52C42.5741 22.52 43.2888 22.7173 43.8968 23.112C44.5154 23.5067 45.0008 24.0293 45.3528 24.68C45.7048 25.32 45.8808 26.024 45.8808 26.792C45.8808 26.8773 45.8808 26.9627 45.8808 27.048C45.8808 27.1227 45.8754 27.1813 45.8648 27.224H38.7288C38.7821 27.8213 38.9474 28.3547 39.2248 28.824C39.5128 29.2827 39.8808 29.6507 40.3288 29.928C40.7874 30.1947 41.2834 30.328 41.8168 30.328C42.3608 30.328 42.8728 30.1893 43.3528 29.912C43.8434 29.6347 44.1848 29.272 44.3768 28.824L45.3208 29.08C45.1501 29.4747 44.8888 29.832 44.5368 30.152C44.1848 30.472 43.7688 30.7227 43.2888 30.904C42.8194 31.0747 42.3128 31.16 41.7688 31.16ZM38.6968 26.44H44.8568C44.8141 25.832 44.6488 25.2987 44.3608 24.84C44.0834 24.3813 43.7154 24.024 43.2568 23.768C42.8088 23.5013 42.3128 23.368 41.7688 23.368C41.2248 23.368 40.7288 23.5013 40.2808 23.768C39.8328 24.024 39.4648 24.3867 39.1768 24.856C38.8994 25.3147 38.7394 25.8427 38.6968 26.44ZM42.0888 21.08L41.3688 20.808L42.3128 19.32H43.4648L42.0888 21.08ZM51.6394 31.16C50.9887 31.16 50.386 30.9947 49.8314 30.664C49.2767 30.3227 48.8447 29.896 48.5354 29.384V31H47.5594V19.32H48.6474V24.408C49.0207 23.8427 49.4687 23.3893 49.9914 23.048C50.514 22.696 51.122 22.52 51.8154 22.52C52.402 22.52 52.9247 22.6427 53.3834 22.888C53.8527 23.1333 54.2527 23.464 54.5834 23.88C54.914 24.2853 55.1647 24.7493 55.3354 25.272C55.506 25.784 55.5914 26.312 55.5914 26.856C55.5914 27.4427 55.49 27.992 55.2874 28.504C55.0954 29.016 54.818 29.4747 54.4554 29.88C54.0927 30.2747 53.6714 30.5893 53.1914 30.824C52.722 31.048 52.2047 31.16 51.6394 31.16ZM51.3834 30.2C51.8314 30.2 52.2474 30.1093 52.6314 29.928C53.0154 29.7467 53.346 29.496 53.6234 29.176C53.9007 28.856 54.114 28.4987 54.2634 28.104C54.4127 27.6987 54.4874 27.2827 54.4874 26.856C54.4874 26.2693 54.3594 25.72 54.1034 25.208C53.858 24.6853 53.5114 24.2693 53.0634 23.96C52.626 23.64 52.1087 23.48 51.5114 23.48C51.0847 23.48 50.6847 23.576 50.3114 23.768C49.9487 23.96 49.6234 24.216 49.3354 24.536C49.058 24.8453 48.8287 25.1867 48.6474 25.56V28.152C48.69 28.44 48.802 28.712 48.9834 28.968C49.1647 29.2133 49.3887 29.4267 49.6554 29.608C49.9327 29.7893 50.2207 29.9333 50.5194 30.04C50.818 30.1467 51.106 30.2 51.3834 30.2ZM61.0344 31.16C60.437 31.16 59.8824 31.048 59.3704 30.824C58.8584 30.5893 58.4157 30.2747 58.0424 29.88C57.669 29.4747 57.3757 29.0107 57.1624 28.488C56.9597 27.9653 56.8584 27.4053 56.8584 26.808C56.8584 26.0293 57.0344 25.3147 57.3864 24.664C57.749 24.0133 58.245 23.496 58.8744 23.112C59.5037 22.7173 60.2184 22.52 61.0184 22.52C61.8397 22.52 62.5544 22.7173 63.1624 23.112C63.781 23.5067 64.2664 24.0293 64.6184 24.68C64.9704 25.32 65.1464 26.024 65.1464 26.792C65.1464 26.8773 65.1464 26.9627 65.1464 27.048C65.1464 27.1227 65.141 27.1813 65.1304 27.224H57.9944C58.0477 27.8213 58.213 28.3547 58.4904 28.824C58.7784 29.2827 59.1464 29.6507 59.5944 29.928C60.053 30.1947 60.549 30.328 61.0824 30.328C61.6264 30.328 62.1384 30.1893 62.6184 29.912C63.109 29.6347 63.4504 29.272 63.6424 28.824L64.5864 29.08C64.4157 29.4747 64.1544 29.832 63.8024 30.152C63.4504 30.472 63.0344 30.7227 62.5544 30.904C62.085 31.0747 61.5784 31.16 61.0344 31.16ZM57.9624 26.44H64.1224C64.0797 25.832 63.9144 25.2987 63.6264 24.84C63.349 24.3813 62.981 24.024 62.5224 23.768C62.0744 23.5013 61.5784 23.368 61.0344 23.368C60.4904 23.368 59.9944 23.5013 59.5464 23.768C59.0984 24.024 58.7304 24.3867 58.4424 24.856C58.165 25.3147 58.005 25.8427 57.9624 26.44ZM70.985 23.624C70.2597 23.6453 69.6197 23.848 69.065 24.232C68.521 24.616 68.137 25.144 67.913 25.816V31H66.825V22.664H67.849V24.664C68.137 24.0773 68.5157 23.6027 68.985 23.24C69.465 22.8773 69.9717 22.6747 70.505 22.632C70.6117 22.6213 70.7023 22.616 70.777 22.616C70.8623 22.616 70.9317 22.6213 70.985 22.632V23.624ZM75.544 31.112C74.9787 31.112 74.456 30.9947 73.976 30.76C73.496 30.5253 73.08 30.2107 72.728 29.816C72.3867 29.4107 72.12 28.952 71.928 28.44C71.736 27.928 71.64 27.4 71.64 26.856C71.64 26.2693 71.7307 25.72 71.912 25.208C72.104 24.6853 72.3707 24.2213 72.712 23.816C73.064 23.4107 73.4747 23.096 73.944 22.872C74.4133 22.6373 74.936 22.52 75.512 22.52C76.2267 22.52 76.8453 22.7013 77.368 23.064C77.9013 23.4267 78.3493 23.8747 78.712 24.408V22.664H79.688V31.032C79.688 31.8 79.5013 32.4453 79.128 32.968C78.7653 33.5013 78.2693 33.9013 77.64 34.168C77.0213 34.4347 76.344 34.568 75.608 34.568C74.6587 34.568 73.8907 34.3973 73.304 34.056C72.7173 33.7147 72.2373 33.256 71.864 32.68L72.536 32.152C72.8667 32.6747 73.304 33.064 73.848 33.32C74.4027 33.576 74.9893 33.704 75.608 33.704C76.152 33.704 76.648 33.6027 77.096 33.4C77.5547 33.208 77.9173 32.9147 78.184 32.52C78.4613 32.1253 78.6 31.6293 78.6 31.032V29.384C78.28 29.9067 77.8427 30.328 77.288 30.648C76.7333 30.9573 76.152 31.112 75.544 31.112ZM75.848 30.2C76.1787 30.2 76.4933 30.1413 76.792 30.024C77.1013 29.9067 77.384 29.752 77.64 29.56C77.896 29.3573 78.1093 29.1333 78.28 28.888C78.4507 28.6427 78.5573 28.392 78.6 28.136V25.56C78.44 25.1547 78.2107 24.7973 77.912 24.488C77.6133 24.168 77.272 23.9227 76.888 23.752C76.5147 23.5707 76.1253 23.48 75.72 23.48C75.2507 23.48 74.8293 23.5813 74.456 23.784C74.0933 23.976 73.784 24.2373 73.528 24.568C73.2827 24.888 73.0907 25.2507 72.952 25.656C72.8133 26.0613 72.744 26.4667 72.744 26.872C72.744 27.32 72.824 27.7467 72.984 28.152C73.144 28.5467 73.3627 28.904 73.64 29.224C73.928 29.5333 74.2587 29.7733 74.632 29.944C75.016 30.1147 75.4213 30.2 75.848 30.2ZM85.6906 31.16C85.0933 31.16 84.5386 31.048 84.0266 30.824C83.5146 30.5893 83.072 30.2747 82.6986 29.88C82.3253 29.4747 82.032 29.0107 81.8186 28.488C81.616 27.9653 81.5146 27.4053 81.5146 26.808C81.5146 26.0293 81.6906 25.3147 82.0426 24.664C82.4053 24.0133 82.9013 23.496 83.5306 23.112C84.16 22.7173 84.8746 22.52 85.6746 22.52C86.496 22.52 87.2106 22.7173 87.8186 23.112C88.4373 23.5067 88.9226 24.0293 89.2746 24.68C89.6266 25.32 89.8026 26.024 89.8026 26.792C89.8026 26.8773 89.8026 26.9627 89.8026 27.048C89.8026 27.1227 89.7973 27.1813 89.7866 27.224H82.6506C82.704 27.8213 82.8693 28.3547 83.1466 28.824C83.4346 29.2827 83.8026 29.6507 84.2506 29.928C84.7093 30.1947 85.2053 30.328 85.7386 30.328C86.2826 30.328 86.7946 30.1893 87.2746 29.912C87.7653 29.6347 88.1066 29.272 88.2986 28.824L89.2426 29.08C89.072 29.4747 88.8106 29.832 88.4586 30.152C88.1066 30.472 87.6906 30.7227 87.2106 30.904C86.7413 31.0747 86.2346 31.16 85.6906 31.16ZM82.6186 26.44H88.7786C88.736 25.832 88.5706 25.2987 88.2826 24.84C88.0053 24.3813 87.6373 24.024 87.1786 23.768C86.7306 23.5013 86.2346 23.368 85.6906 23.368C85.1466 23.368 84.6506 23.5013 84.2026 23.768C83.7546 24.024 83.3866 24.3867 83.0986 24.856C82.8213 25.3147 82.6613 25.8427 82.6186 26.44ZM103.881 31H102.793V26.344C102.793 25.3733 102.639 24.6587 102.329 24.2C102.02 23.7413 101.561 23.512 100.953 23.512C100.324 23.512 99.7586 23.736 99.2573 24.184C98.7666 24.632 98.4199 25.208 98.2173 25.912V31H97.1293V26.344C97.1293 25.3627 96.9799 24.648 96.6813 24.2C96.3826 23.7413 95.9239 23.512 95.3053 23.512C94.6866 23.512 94.1266 23.7307 93.6253 24.168C93.1239 24.6053 92.7719 25.1813 92.5693 25.896V31H91.4813V22.664H92.4733V24.552C92.8253 23.9013 93.2733 23.4 93.8173 23.048C94.3719 22.696 94.9853 22.52 95.6573 22.52C96.3506 22.52 96.9106 22.7173 97.3373 23.112C97.7639 23.5067 98.0253 24.024 98.1213 24.664C98.5053 23.96 98.9639 23.4267 99.4973 23.064C100.041 22.7013 100.655 22.52 101.337 22.52C101.807 22.52 102.201 22.6053 102.521 22.776C102.852 22.9467 103.113 23.192 103.305 23.512C103.508 23.8213 103.652 24.2 103.737 24.648C103.833 25.0853 103.881 25.576 103.881 26.12V31ZM109.784 31.16C109.187 31.16 108.632 31.048 108.12 30.824C107.608 30.5893 107.166 30.2747 106.792 29.88C106.419 29.4747 106.126 29.0107 105.912 28.488C105.71 27.9653 105.608 27.4053 105.608 26.808C105.608 26.0293 105.784 25.3147 106.136 24.664C106.499 24.0133 106.995 23.496 107.624 23.112C108.254 22.7173 108.968 22.52 109.768 22.52C110.59 22.52 111.304 22.7173 111.912 23.112C112.531 23.5067 113.016 24.0293 113.368 24.68C113.72 25.32 113.896 26.024 113.896 26.792C113.896 26.8773 113.896 26.9627 113.896 27.048C113.896 27.1227 113.891 27.1813 113.88 27.224H106.744C106.798 27.8213 106.963 28.3547 107.24 28.824C107.528 29.2827 107.896 29.6507 108.344 29.928C108.803 30.1947 109.299 30.328 109.832 30.328C110.376 30.328 110.888 30.1893 111.368 29.912C111.859 29.6347 112.2 29.272 112.392 28.824L113.336 29.08C113.166 29.4747 112.904 29.832 112.552 30.152C112.2 30.472 111.784 30.7227 111.304 30.904C110.835 31.0747 110.328 31.16 109.784 31.16ZM106.712 26.44H112.872C112.83 25.832 112.664 25.2987 112.376 24.84C112.099 24.3813 111.731 24.024 111.272 23.768C110.824 23.5013 110.328 23.368 109.784 23.368C109.24 23.368 108.744 23.5013 108.296 23.768C107.848 24.024 107.48 24.3867 107.192 24.856C106.915 25.3147 106.755 25.8427 106.712 26.44ZM122.583 31H121.495V26.344C121.495 25.3627 121.351 24.648 121.063 24.2C120.775 23.7413 120.322 23.512 119.703 23.512C119.276 23.512 118.855 23.6187 118.439 23.832C118.023 24.0347 117.655 24.3173 117.335 24.68C117.026 25.032 116.802 25.4373 116.663 25.896V31H115.575V22.664H116.567V24.552C116.791 24.1467 117.084 23.7947 117.447 23.496C117.81 23.1867 118.22 22.9467 118.679 22.776C119.138 22.6053 119.612 22.52 120.103 22.52C120.562 22.52 120.951 22.6053 121.271 22.776C121.591 22.9467 121.847 23.192 122.039 23.512C122.231 23.8213 122.37 24.2 122.455 24.648C122.54 25.0853 122.583 25.576 122.583 26.12V31ZM128.825 30.6C128.74 30.632 128.606 30.6907 128.425 30.776C128.244 30.8613 128.025 30.936 127.769 31C127.513 31.064 127.236 31.096 126.937 31.096C126.628 31.096 126.334 31.0373 126.057 30.92C125.79 30.8027 125.577 30.6267 125.417 30.392C125.257 30.1467 125.177 29.848 125.177 29.496V23.528H124.025V22.664H125.177V19.848H126.265V22.664H128.185V23.528H126.265V29.192C126.286 29.4907 126.393 29.7147 126.585 29.864C126.788 30.0133 127.017 30.088 127.273 30.088C127.572 30.088 127.844 30.04 128.089 29.944C128.334 29.8373 128.484 29.7627 128.537 29.72L128.825 30.6ZM132.92 31.16C132.238 31.16 131.603 31.048 131.016 30.824C130.43 30.6 129.923 30.2587 129.496 29.8L129.944 29.032C130.414 29.4693 130.883 29.7893 131.352 29.992C131.832 30.184 132.339 30.28 132.872 30.28C133.523 30.28 134.051 30.152 134.456 29.896C134.862 29.6293 135.064 29.2507 135.064 28.76C135.064 28.4293 134.963 28.1787 134.76 28.008C134.568 27.8267 134.286 27.6827 133.912 27.576C133.55 27.4587 133.112 27.336 132.6 27.208C132.024 27.048 131.539 26.8827 131.144 26.712C130.76 26.5307 130.467 26.3067 130.264 26.04C130.072 25.7627 129.976 25.4053 129.976 24.968C129.976 24.424 130.11 23.976 130.376 23.624C130.654 23.2613 131.027 22.9893 131.496 22.808C131.976 22.616 132.51 22.52 133.096 22.52C133.736 22.52 134.302 22.6213 134.792 22.824C135.283 23.0267 135.683 23.3093 135.992 23.672L135.464 24.408C135.166 24.0667 134.808 23.816 134.392 23.656C133.987 23.4853 133.534 23.4 133.032 23.4C132.691 23.4 132.366 23.448 132.056 23.544C131.747 23.6293 131.491 23.7787 131.288 23.992C131.096 24.1947 131 24.4773 131 24.84C131 25.1387 131.075 25.3733 131.224 25.544C131.374 25.704 131.598 25.8427 131.896 25.96C132.195 26.0667 132.563 26.184 133 26.312C133.63 26.4827 134.179 26.6587 134.648 26.84C135.118 27.0107 135.48 27.2347 135.736 27.512C135.992 27.7893 136.12 28.1787 136.12 28.68C136.12 29.4587 135.827 30.0667 135.24 30.504C134.654 30.9413 133.88 31.16 132.92 31.16Z" fill="#0065FC"/>
<rect x="25" width="113" height="2" fill="#0065FC"/>
<path d="M211.163 19.64H212.107L216.827 31H215.643L214.171 27.448H209.067L207.611 31H206.411L211.163 19.64ZM213.915 26.568L211.627 20.952L209.307 26.568H213.915ZM221.613 31.16C220.802 31.16 220.082 30.9627 219.453 30.568C218.824 30.1627 218.328 29.6347 217.965 28.984C217.602 28.3227 217.421 27.5973 217.421 26.808C217.421 26.0187 217.597 25.304 217.949 24.664C218.301 24.0133 218.792 23.496 219.421 23.112C220.05 22.7173 220.776 22.52 221.597 22.52C222.376 22.52 223.058 22.7013 223.645 23.064C224.242 23.416 224.69 23.896 224.989 24.504L223.933 24.84C223.698 24.4133 223.368 24.0827 222.941 23.848C222.525 23.6027 222.061 23.48 221.549 23.48C220.984 23.48 220.472 23.624 220.013 23.912C219.565 24.2 219.202 24.6 218.925 25.112C218.658 25.6133 218.525 26.1787 218.525 26.808C218.525 27.4373 218.664 28.008 218.941 28.52C219.218 29.032 219.586 29.4427 220.045 29.752C220.504 30.0507 221.01 30.2 221.565 30.2C221.928 30.2 222.28 30.136 222.621 30.008C222.962 29.88 223.256 29.7093 223.501 29.496C223.746 29.272 223.912 29.032 223.997 28.776L225.069 29.096C224.92 29.4907 224.674 29.848 224.333 30.168C223.992 30.4773 223.586 30.7227 223.117 30.904C222.648 31.0747 222.146 31.16 221.613 31.16ZM230.778 30.6C230.65 30.6533 230.415 30.7493 230.074 30.888C229.733 31.0267 229.338 31.096 228.89 31.096C228.421 31.096 228.01 30.9627 227.658 30.696C227.306 30.4293 227.13 30.0293 227.13 29.496V23.528H225.978V22.664H227.13V19.848H228.218V22.664H230.138V23.528H228.218V29.192C228.239 29.5013 228.346 29.7307 228.538 29.88C228.741 30.0187 228.97 30.088 229.226 30.088C229.525 30.088 229.791 30.04 230.026 29.944C230.271 29.8373 230.426 29.7627 230.49 29.72L230.778 30.6ZM232.138 20.92V19.32H233.226V20.92H232.138ZM232.138 31V22.664H233.226V31H232.138ZM238.102 31L234.726 22.664H235.862L238.71 29.912L241.574 22.664H242.646L239.27 31H238.102ZM244.153 20.92V19.32H245.241V20.92H244.153ZM244.153 31V22.664H245.241V31H244.153ZM251.638 30.6C251.51 30.6533 251.275 30.7493 250.934 30.888C250.592 31.0267 250.198 31.096 249.75 31.096C249.28 31.096 248.87 30.9627 248.518 30.696C248.166 30.4293 247.99 30.0293 247.99 29.496V23.528H246.838V22.664H247.99V19.848H249.078V22.664H250.998V23.528H249.078V29.192C249.099 29.5013 249.206 29.7307 249.398 29.88C249.6 30.0187 249.83 30.088 250.086 30.088C250.384 30.088 250.651 30.04 250.886 29.944C251.131 29.8373 251.286 29.7627 251.35 29.72L251.638 30.6ZM256.456 31.16C255.656 31.16 254.942 30.9627 254.312 30.568C253.683 30.1733 253.187 29.6453 252.824 28.984C252.462 28.3227 252.28 27.5973 252.28 26.808C252.28 26.0293 252.456 25.3147 252.808 24.664C253.171 24.0133 253.667 23.496 254.296 23.112C254.926 22.7173 255.64 22.52 256.44 22.52C257.262 22.52 257.982 22.7173 258.6 23.112C259.219 23.5067 259.699 24.0293 260.04 24.68C260.392 25.32 260.568 26.024 260.568 26.792C260.568 26.9627 260.563 27.1067 260.552 27.224H253.416C253.47 27.8213 253.64 28.3547 253.928 28.824C254.216 29.2827 254.584 29.6507 255.032 29.928C255.48 30.1947 255.971 30.328 256.504 30.328C257.048 30.328 257.56 30.1893 258.04 29.912C258.52 29.6347 258.862 29.272 259.064 28.824L260.008 29.08C259.838 29.4853 259.571 29.848 259.208 30.168C258.856 30.4773 258.446 30.7227 257.976 30.904C257.507 31.0747 257 31.16 256.456 31.16ZM253.384 26.44H259.544C259.502 25.8427 259.336 25.3147 259.048 24.856C258.76 24.3867 258.392 24.024 257.944 23.768C257.496 23.5013 257 23.368 256.456 23.368C255.912 23.368 255.416 23.5013 254.968 23.768C254.52 24.024 254.152 24.3867 253.864 24.856C253.587 25.3147 253.427 25.8427 253.384 26.44ZM256.776 21.08L256.056 20.808L257 19.32H258.152L256.776 21.08ZM264.983 31.16C264.3 31.16 263.666 31.048 263.079 30.824C262.503 30.5893 261.996 30.248 261.559 29.8L262.007 29.032C262.476 29.4693 262.946 29.7893 263.415 29.992C263.895 30.184 264.402 30.28 264.935 30.28C265.575 30.28 266.098 30.152 266.503 29.896C266.919 29.6293 267.127 29.2507 267.127 28.76C267.127 28.4293 267.026 28.1787 266.823 28.008C266.631 27.8267 266.348 27.6827 265.975 27.576C265.612 27.4693 265.175 27.3467 264.663 27.208C264.087 27.048 263.602 26.8827 263.207 26.712C262.823 26.5307 262.53 26.3067 262.327 26.04C262.135 25.7627 262.039 25.4053 262.039 24.968C262.039 24.4347 262.172 23.9867 262.439 23.624C262.716 23.2613 263.09 22.9893 263.559 22.808C264.039 22.616 264.572 22.52 265.159 22.52C265.799 22.52 266.364 22.6213 266.855 22.824C267.346 23.0267 267.746 23.3093 268.055 23.672L267.527 24.408C267.239 24.0667 266.882 23.816 266.455 23.656C266.039 23.4853 265.586 23.4 265.095 23.4C264.754 23.4 264.428 23.448 264.119 23.544C263.81 23.6293 263.554 23.7787 263.351 23.992C263.159 24.1947 263.063 24.4773 263.063 24.84C263.063 25.288 263.228 25.5973 263.559 25.768C263.89 25.9387 264.391 26.12 265.063 26.312C265.692 26.4827 266.242 26.6533 266.711 26.824C267.18 26.9947 267.543 27.224 267.799 27.512C268.055 27.7893 268.183 28.1787 268.183 28.68C268.183 29.4587 267.89 30.0667 267.303 30.504C266.716 30.9413 265.943 31.16 264.983 31.16Z" fill="black"/>
</svg>
